HIERARCHY
ROOT pelvis
{
  OFFSET 0 100 0
  CHANNELS 6 Xposition Yposition Zposition Zrotation Xrotation Yrotation
  JOINT pelvis_right_femur
  {
    OFFSET -10.78128 -3.44521 -0.5502486
    CHANNELS 3 Zrotation Xrotation Yrotation
    JOINT right_femur_tibia
    {
      OFFSET -0.8047443 -44.0398 -0.1307829
      CHANNELS 3 Zrotation Xrotation Yrotation
      JOINT right_tibia_foot
      {
        OFFSET 3.006224 -47.83518 -5
        CHANNELS 3 Zrotation Xrotation Yrotation
        End Site
        {
          OFFSET 0 -5 15
        }
      }
    }
  }
  JOINT pelvis_left_femur
  {
    OFFSET 10.78128 -3.44521 -0.5502486
    CHANNELS 3 Zrotation Xrotation Yrotation
    JOINT left_femur_tibia
    {
      OFFSET 0.8047443 -44.0398 -0.1307829
      CHANNELS 3 Zrotation Xrotation Yrotation
      JOINT left_tibia_foot
      {
        OFFSET -4.370144 -48.10324 -4.275266
        CHANNELS 3 Zrotation Xrotation Yrotation
        End Site
        {
          OFFSET 0 -5 15
        }
      }
    }
  }
  JOINT pelvis_spine1
  {
    OFFSET 0 6.468898 -3.129235
    CHANNELS 3 Zrotation Xrotation Yrotation
    JOINT spine1
    {
      OFFSET 0 23.15396 4.99043
      CHANNELS 3 Zrotation Xrotation Yrotation
      JOINT spine2
      {
        OFFSET 0 20.79997 -5.064912
        CHANNELS 3 Zrotation Xrotation Yrotation
        JOINT neck
        {
          OFFSET 0 14.38658 9.616178
          CHANNELS 3 Zrotation Xrotation Yrotation
          End Site
          {
            OFFSET 0 20 0
          }
        }
      }
      JOINT right_manubrium
      {
        OFFSET -5.722621 16.35077 3.967754
        CHANNELS 3 Zrotation Xrotation Yrotation
        JOINT right_clavicle
        {
          OFFSET -13.16364 1.694482 -4.693211
          CHANNELS 3 Zrotation Xrotation Yrotation
          JOINT right_humerus
          {
            OFFSET -28.5034 -0.3100689 -2.792744
            CHANNELS 3 Zrotation Xrotation Yrotation
            JOINT right_radius
            {
              OFFSET -25.15693 0.02248979 -1.271978
              CHANNELS 3 Zrotation Xrotation Yrotation
              End Site
              {
                OFFSET -15 0 0
              }
            }
          }
        }
      }
      JOINT left_manubrium
      {
        OFFSET 5.722621 16.35077 3.967754
        CHANNELS 3 Zrotation Xrotation Yrotation
        JOINT left_clavicle
        {
          OFFSET 13.16364 1.694482 -4.693211
          CHANNELS 3 Zrotation Xrotation Yrotation
          JOINT left_humerus
          {
            OFFSET 29.39168 -1.063119 -2.237045
            CHANNELS 3 Zrotation Xrotation Yrotation
            JOINT left_radius
            {
              OFFSET 24.59957 -0.9528479 0.9047498
              CHANNELS 3 Zrotation Xrotation Yrotation
              End Site
              {
                OFFSET 15 -0 -0
              }
            }
          }
        }
      }
    }
  }
}
MOTION
Frames: 19
Frame Time: 0.0416666666667
-1545.632 108.0711 19.52431 -2.668198 -0.9558096 161.1248 1.965304 -19.02545 -1.752961 -0 17.63605 -0 -17.62603 2.656866 8.028997 -4.75206 -10.115 -4.44453 -0 19.48197 -0 18.48036 -1.599332 15.75134 -2.834891 -4.349399 10.79854 3.113807 19.23671 -10.93545 -3.846097 15.05406 8.784273 11.74646 -20.40808 -1.74756 10.58373 -26.28528 16.6437 83.56985 40.66593 -21.55405 -0 0 23.78022 -14.46393 4.746173 2.98971 9.260749 -33.83661 -9.088369 -89.14252 -10.22766 27.03801 0 0 -17.37945 31.9293 -6.36522 -24.48822
-1545.489 107.9922 14.79048 -3.289575 -2.031088 160.8395 2.420371 -22.63023 -1.454582 -0 14.70275 -0 -17.27333 3.351132 8.317674 -5.388403 -9.511109 -3.763666 -0 19.57426 -0 21.08488 -2.051029 16.06935 -3.291489 -4.739163 11.31659 3.848388 19.92561 -12.03676 -4.21401 14.24044 8.600822 11.8191 -21.4255 -2.352168 10.96893 -26.76917 17.13053 84.54003 41.68362 -23.69807 -0 0 23.75073 -13.23171 3.892918 2.278968 9.697616 -35.19823 -8.991694 -88.39444 -11.69946 26.43381 0 0 -20.72136 33.14066 -8.77838 -25.80703
-1545.322 107.7925 10.19594 -3.741028 -2.833584 160.4885 2.845084 -25.74553 -1.288843 -0 12.04851 -0 -16.73152 4.056828 8.487913 -6.02626 -8.585805 -3.47804 -0 19.42008 -0 23.09454 -2.798148 16.65097 -3.682089 -4.96657 11.55466 4.390677 20.32309 -12.79318 -4.378585 13.76664 8.444296 11.69755 -22.32785 -2.550585 11.06405 -26.97494 17.38633 85.48404 42.32876 -25.3403 -0 0 23.33664 -12.44888 3.442785 1.904481 10.13795 -36.08484 -8.767664 -87.80958 -12.4368 25.51288 0 0 -23.56865 34.0231 -10.26074 -26.80646
-1545.106 107.4759 5.725742 -4.022549 -3.354784 160.0857 3.216783 -28.41833 -1.314787 -0 9.622352 -0 -16.0317 4.815868 8.56556 -6.631288 -7.342878 -3.499826 -0 19.14915 -0 24.47376 -3.829871 17.38695 -3.996298 -5.038797 11.54041 4.73443 20.47706 -13.22397 -4.364127 13.59574 8.326841 11.43951 -23.0829 -2.40518 10.89868 -26.9299 17.43397 86.343 42.59018 -26.50741 -0 0 22.607 -12.12142 3.423379 1.799672 10.56997 -36.57564 -8.485018 -87.36762 -12.49523 24.33504 0 0 -25.96788 34.58802 -10.82773 -27.50556
-1544.816 107.0452 1.351075 -4.157697 -3.595597 159.6418 3.503237 -30.69891 -1.584465 -0 7.338202 -0 -15.22855 5.709984 8.589033 -7.182533 -5.81863 -3.704065 -0 18.89408 -0 25.24613 -5.130937 18.16507 -4.242961 -4.9795 11.32293 4.892591 20.45042 -13.37713 -4.207154 13.67419 8.243252 11.10671 -23.66095 -2.01679 10.51685 -26.67366 17.31237 87.09746 42.46801 -27.27931 -0 0 21.63199 -12.23037 3.794936 1.896754 10.9859 -36.7836 -8.211218 -87.02333 -11.98275 22.96073 0 0 -28.02544 34.85238 -10.58274 -27.92696
-1544.422 106.5006 -2.972179 -4.17154 -3.54334 159.1687 3.658819 -32.59942 -2.151407 -0 5.140427 -0 -14.3858 6.830078 8.588623 -7.671161 -4.039402 -3.979136 -0 18.75951 -0 25.44005 -6.693846 18.89615 -4.439701 -4.812308 10.93842 4.875471 20.29096 -13.29419 -3.937508 13.96777 8.180717 10.74596 -24.02127 -1.478202 9.952408 -26.2259 17.05195 87.75335 41.95806 -27.73192 -0 0 20.43991 -12.76952 4.500747 2.15432 11.38054 -36.80321 -7.997748 -86.72397 -10.99971 21.40735 0 0 -29.83636 34.8293 -9.626326 -28.09175
-1543.887 105.8406 -7.303303 -4.078879 -3.158235 158.6861 3.62373 -34.06087 -3.071228 -0 3.044564 -0 -13.56579 8.242096 8.570345 -8.094885 -2.002478 -4.244995 -0 18.8052 -0 25.05321 -8.519661 19.51241 -4.605616 -4.555475 10.39647 4.67983 20.01702 -12.99469 -3.570957 14.47731 8.121257 10.3798 -24.10216 -0.8572183 9.217223 -25.57572 16.66457 88.32948 41.03093 -27.90936 -0 0 19.00745 -13.75667 5.486216 2.565238 11.74368 -36.6867 -7.87923 -86.41614 -9.603064 19.63809 0 0 -31.44719 34.51286 -8.006952 -28.00146
-1543.161 105.0641 -11.71515 -3.881631 -2.372207 158.2275 3.332897 -34.92476 -4.383475 -0 1.16835 -0 -12.82146 9.939361 8.501564 -8.451416 0.3189999 -4.455057 -0 19.01952 -0 24.03644 -10.60572 19.95086 -4.755666 -4.224972 9.681217 4.288851 19.61019 -12.47587 -3.110229 15.24041 8.03783 9.999368 -23.81905 -0.1981143 8.297985 -24.68755 16.14412 88.85233 39.6095 -27.81757 -0 0 17.27246 -15.21718 6.681882 3.154199 12.04891 -36.43523 -7.875875 -86.04607 -7.788823 17.57595 0 0 -32.8375 33.85817 -5.710387 -27.60693
-1542.188 104.1743 -16.28788 -3.571071 -1.111655 157.8455 2.749822 -34.92487 -6.057344 0 -0.239047 0 -12.1823 11.76167 8.293599 -8.730367 2.946675 -4.601568 -0 19.25799 -0 22.29539 -12.91475 20.13191 -4.889405 -3.842058 8.763098 3.684257 19.00859 -11.72388 -2.551013 16.32 7.888486 9.552248 -23.0849 0.4760076 7.156969 -23.52577 15.47476 89.35972 37.54822 -27.43049 -0 0 15.16997 -17.13201 7.95537 3.967649 12.24005 -35.99121 -7.989615 -85.56393 -5.481818 15.14918 0 0 -33.90553 32.75439 -2.682261 -26.75752
-1540.914 103.1831 -21.09195 -3.131773 0.6263103 157.6087 1.938494 -33.76885 -7.89202 0 -0.8064892 0 -11.62883 13.28702 7.789063 -8.899771 5.835235 -4.735802 -0 19.15138 -0 19.72836 -15.31773 19.94457 -4.963363 -3.442293 7.626817 2.879216 18.10991 -10.74188 -1.892968 17.7637 7.617471 8.926403 -21.88636 1.17535 5.737694 -22.11401 14.65062 89.91701 34.63419 -26.71578 -0 0 12.70914 -19.33656 9.048205 5.047577 12.22063 -35.23602 -8.187448 -84.94638 -2.540197 12.3981 0 0 -34.4727 30.99631 1.094763 -25.13308
-1539.316 102.1144 -26.15887 -2.542263 2.62443 157.5716 1.134943 -31.42984 -9.438602 0 -0.2002682 0 -11.0872 13.81643 6.801098 -8.887464 8.789671 -4.990212 -0 18.13218 -0 16.34477 -17.52276 19.27051 -4.84774 -3.080717 6.322906 1.974713 16.82335 -9.601705 -1.156214 19.50979 7.183222 7.959633 -20.43857 1.973662 3.989817 -20.63101 13.71022 90.64333 30.68566 -25.70253 -0 0 10.08746 -21.41238 9.578992 6.38222 11.86741 -34.03427 -8.376953 -84.24902 1.168694 9.648953 0 0 -34.3681 28.31103 5.427789 -22.24073
-1537.435 101.01 -31.46182 -1.773034 4.350105 157.7106 0.6923035 -28.56338 -10.14426 -0 1.488481 -0 -10.53623 12.75419 5.281368 -8.587702 11.45377 -5.523549 -0 16.02623 -0 12.47501 -19.0681 18.09502 -4.335189 -2.825728 5.018049 1.18612 15.22288 -8.492244 -0.3982412 21.27719 6.628649 6.558968 -19.28195 2.994941 1.954052 -19.43221 12.76663 91.69131 25.8871 -24.58761 -0 0 7.714293 -22.79225 9.297598 7.855376 11.10425 -32.39852 -8.422255 -83.65413 5.503434 7.567318 0 0 -33.64196 24.61457 9.700195 -17.7607
-1535.342 99.95668 -36.94451 -0.8275158 5.274522 157.8961 0.8449783 -26.29556 -9.807315 -0 3.518949 -0 -10.19022 10.4061 3.516841 -7.957875 13.47458 -6.2952 -0 14.31866 -0 8.844346 -19.49359 16.63312 -3.343664 -2.736759 3.959316 0.7195597 13.70822 -7.675832 0.2795449 22.63415 6.127194 4.967876 -18.91886 4.219083 -0.0708836 -18.77312 11.98715 93.04987 21.24523 -23.76095 -0 0 5.945762 -23.2774 8.561881 9.204198 10.02608 -30.71048 -8.283657 -83.37126 9.674682 6.70176 0 0 -32.68342 20.56175 13.01271 -12.41584
-1533.076 99.11841 -42.56772 0.1684069 5.488697 157.9828 1.515839 -24.98145 -8.844438 -0 5.139449 -0 -10.35793 8.03374 1.980663 -7.13268 14.63992 -6.92936 -0 15.94895 -0 6.130745 -18.63004 15.22423 -2.158803 -2.816011 3.321035 0.5652186 12.81207 -7.308358 0.7574471 23.34257 5.8593 3.792388 -19.1368 5.282946 -1.522933 -18.46469 11.51524 94.32044 18.24567 -23.55635 -0 0 4.816162 -23.31818 8.242449 10.01681 8.915429 -29.55982 -8.155713 -83.40101 12.53018 6.862064 0 0 -31.80573 17.48601 14.94548 -8.105799
-1530.643 98.67499 -48.30087 1.043269 5.572763 157.8819 2.430209 -23.84644 -7.815883 -0 6.276139 -0 -11.00319 6.508384 0.8988409 -6.31946 14.82142 -7.096768 -0 21.99872 -0 4.436848 -16.76868 14.1123 -1.183744 -2.975769 3.099201 0.5459124 12.68995 -7.296024 0.9954075 23.54351 5.807175 3.376738 -19.28098 5.818491 -2.101315 -18.18873 11.37242 95.08062 17.34492 -23.87703 -0 0 4.234449 -23.37746 8.73261 10.07579 8.013542 -29.13247 -8.256785 -83.62002 13.69921 7.490032 0 0 -30.84638 16.02154 15.85906 -5.981466
-1528.061 98.70733 -54.10037 1.75746 5.908007 157.556 3.374041 -22.18169 -6.91003 -0 7.091002 -0 -11.78772 5.736045 0.1459327 -5.618226 14.0435 -6.829718 -0 30.42586 -0 3.502022 -14.48874 13.42637 -0.5257342 -3.132312 3.192603 0.527602 13.09856 -7.410332 1.092835 23.50535 5.782739 3.45041 -19.12592 5.863996 -2.153987 -17.99223 11.44343 95.4153 17.48123 -24.30852 -0 0 4.149462 -23.55068 9.644692 9.681839 7.330275 -29.14651 -8.583732 -84.00212 13.7615 8.370219 0 0 -29.65547 15.5792 16.24247 -5.377307
-1525.358 99.19202 -59.91464 2.369337 6.539236 157.0096 4.27296 -19.85957 -6.074339 -0 7.615338 -0 -12.4677 5.419143 -0.4593007 -5.016351 12.46631 -6.284312 -0 38.92783 -0 3.111855 -12.21511 13.16668 -0.07576608 -3.286827 3.524452 0.4656626 13.81838 -7.510182 1.162831 23.35763 5.639285 3.622835 -18.83506 5.637787 -2.18139 -18.1226 11.61725 95.64078 17.46171 -24.57794 -0 0 4.53422 -23.84077 10.54484 9.265515 6.750491 -29.34375 -9.059161 -84.55261 13.31063 9.602904 0 0 -28.39385 15.39751 16.34744 -5.195706
-1522.566 100.0653 -65.68986 2.941534 7.373332 156.271 5.136069 -16.97157 -5.235884 -0 7.926078 -0 -12.971 5.370772 -0.9933329 -4.438221 10.20388 -5.556112 -0 46.46475 -0 3.128986 -10.06569 13.22872 0.2761722 -3.460506 4.047767 0.3625755 14.76422 -7.570403 1.239963 23.10046 5.343403 3.722812 -18.56513 5.26713 -2.381618 -18.72517 11.85504 95.89378 16.8645 -24.6033 -0 0 5.428635 -24.23053 11.31641 9.028292 6.179138 -29.60716 -9.64713 -85.27484 12.6173 11.35477 0 0 -27.17909 15.10607 16.26805 -4.865855
-1519.723 101.2497 -71.37174 3.51776 8.300416 155.3752 5.985054 -13.585 -4.341836 -0 8.171431 -0 -13.27421 5.397065 -1.483315 -3.787492 7.295722 -4.697592 -0 52.57733 -0 3.440934 -8.02457 13.50117 0.5910768 -3.650499 4.718271 0.2374062 15.88171 -7.600958 1.315567 22.70531 4.906882 3.70308 -18.38432 4.801837 -2.744413 -19.83546 12.14501 96.15016 15.73814 -24.33028 -0 0 6.921668 -24.65443 11.99673 9.02306 5.564655 -29.84678 -10.31436 -86.17951 11.8082 13.74617 0 0 -25.97058 14.55789 16.0394 -4.171208
